<svg width="180" height="48" viewBox="0 0 180 48" fill="none" xmlns="http://www.w3.org/2000/svg">
<g clip-path="url(#clip0_16660_53550)">
<path fill-rule="evenodd" clip-rule="evenodd" d="M0.0433715 44.2735V44.3125L0 44.3159L0.0433715 44.2735ZM0.0433715 44.3125C1.12989 44.2264 2.81915 44.047 2.81915 42.9989V21.9257H0.303601V21.3733H2.81915V21.3309C2.81915 14.4055 7.32979 11.0491 10.5826 10.0294C11.4067 9.77449 12.2741 9.64703 13.1415 9.64703C16.5679 9.64703 19.9509 11.5164 19.0834 14.7879C19.0401 15.1278 17.9558 17.0396 17.0016 16.8697C16.6278 16.7965 16.5762 16.2814 16.5031 15.5523C16.4066 14.5895 16.2727 13.2535 15.3101 12.0688C14.4861 11.0491 13.315 10.3693 11.8838 10.3693C11.3633 10.3693 10.8429 10.4543 10.3224 10.6242C7.02619 11.6864 6.80933 15.9775 6.80933 21.2884V21.3309H13.1849V21.8832H6.80933V42.9564C6.80933 43.9764 8.96921 44.1736 9.94726 44.2629L10.0622 44.2735V44.6983H0.0433715V44.3125ZM38.3181 21.7557C38.4139 21.7669 38.5149 21.7779 38.6192 21.7892C39.6955 21.9058 41.1372 22.062 41.1372 23.0303V42.9564C41.1372 44.0185 39.4024 44.1885 38.3181 44.2735V44.6983H47.9032V44.2735L47.8827 44.2715C46.9641 44.1859 45.084 44.0106 45.084 42.9564V35.6487C45.2575 32.3348 49.3344 23.2427 53.7583 23.2427C56.6208 23.2427 57.0546 26.9391 57.0546 32.3773V42.9564C57.0546 44.0185 55.3197 44.1885 54.2354 44.2735V44.6983H63.8205V44.2735L63.8 44.2715C62.8814 44.1859 61.0013 44.0106 61.0013 42.9564V32.4198L61.0016 31.9201C61.0061 25.9409 61.0099 21.0335 55.0595 21.0335C50.6356 21.0335 46.4286 28.2986 45.084 33.227V21.3733H38.3181V21.7557ZM65.5146 21.7892C65.4102 21.7779 65.3093 21.7669 65.2135 21.7557V21.3733H71.9795V33.227C73.324 28.2986 77.531 21.0335 81.9549 21.0335C87.9053 21.0335 87.9016 25.9408 87.8971 31.9201L87.8968 32.4198V42.9564C87.8968 44.0106 89.7769 44.1859 90.6955 44.2715L90.7159 44.2735V44.6983H81.1309V44.2735C82.2151 44.1885 83.95 44.0185 83.95 42.9564V32.3773C83.95 26.9391 83.5163 23.2427 80.6538 23.2427C76.2299 23.2427 72.153 32.3348 71.9795 35.6487V42.9564C71.9795 44.0106 73.8595 44.1859 74.7781 44.2715L74.7986 44.2735V44.6983H65.2135V44.2735C66.2978 44.1885 68.0327 44.0185 68.0327 42.9564V23.0303C68.0327 22.062 66.5909 21.9058 65.5146 21.7892ZM125.971 44.6983V44.2735L125.94 44.2701C124.772 44.143 123.152 43.9669 123.152 42.9139V11.8563H116.387V12.2812L116.488 12.2931C117.576 12.42 119.206 12.6099 119.206 13.5983V42.9139C119.206 43.9446 117.572 44.1351 116.484 44.2621L116.387 44.2735V44.6983H125.971ZM103.601 44.9539C97.2262 44.9539 92.2382 38.496 92.2382 32.6753C92.2382 26.4723 97.183 20.8216 103.818 20.8216C107.375 20.8216 112.963 22.7561 112.578 29.0829C112.554 29.4766 112.033 34.3321 105.98 35.6147C103.372 36.1676 99.8867 35.5372 97.3567 34.0803C97.3567 34.0803 97.2365 33.6082 97.2365 33.2542C97.2365 33.2542 99.1093 34.4424 101.522 34.5525C106.944 34.7999 108.348 30.8935 108.589 27.8083C108.83 24.723 107.327 21.3739 102.777 21.61C97.5369 21.8819 96.2714 27.492 96.2714 31.4432C96.2714 33.4401 96.5324 35.1395 97.0525 36.8815L97.4862 37.9436C97.4862 37.9436 99.8284 42.7021 104.339 43.1695C109.327 43.6793 112.797 40.3229 114.792 36.2867L115.268 36.4566C113.36 40.9602 109.457 44.9539 103.601 44.9539ZM14.6423 32.6753C14.6423 38.496 19.63 44.9539 26.0056 44.9539C31.8608 44.9539 35.7642 40.9602 37.6726 36.4566L37.1955 36.2867C35.2004 40.3229 31.7306 43.6793 26.7429 43.1695C22.2323 42.7021 19.8902 37.9436 19.8902 37.9436L19.4565 36.8815C18.936 35.1395 18.6758 33.4401 18.6758 31.4432C18.6758 27.492 19.9409 21.8819 25.1815 21.61C29.7314 21.3739 31.2343 24.723 30.9933 27.8083C30.7524 30.8935 29.3485 34.7999 23.9264 34.5525C21.5136 34.4424 19.6402 33.2542 19.6402 33.2542C19.6402 33.6082 19.7607 34.0803 19.7607 34.0803C22.291 35.5372 25.7762 36.1676 28.3845 35.6147C34.4365 34.3321 34.958 29.4766 34.982 29.0829C35.367 22.7561 29.7789 20.8216 26.2224 20.8216C19.5866 20.8216 14.6423 26.4723 14.6423 32.6753Z" fill="#FDFDFD"/>
<path opacity="0.2" d="M160.538 25.6844C149.47 26.8828 147.777 44.9387 138.453 26.6626C138.284 26.3318 138.083 26.0197 137.928 25.6844L136.722 25.8716C139.137 34.4157 143.41 42.8313 151.908 44.0884C155.016 44.548 158.189 44.0211 160.974 42.4605C170.143 37.3238 173.109 24.0865 174.44 14.0828C174.887 10.7211 175.168 7.33683 175.326 3.94605L175.167 3.90424C174.225 13.5969 170.993 24.5524 160.538 25.6844Z" fill="url(#paint0_linear_16660_53550)"/>
<path fill-rule="evenodd" clip-rule="evenodd" d="M176.489 3.19042C177.18 2.99305 177.685 2.36808 177.685 1.62763C177.685 0.728682 176.94 -6.10352e-05 176.023 -6.10352e-05C175.105 -6.10352e-05 174.362 0.728682 174.362 1.62763C174.362 2.25003 174.718 2.79084 175.242 3.06468C173.778 15.8142 170.522 31.332 163.022 38.2744C164.578 35.2685 165.749 31.5312 166.646 27.5196C167.859 22.0929 168.575 16.1272 169.043 10.7093C169.597 10.4456 169.979 9.88851 169.979 9.24396C169.979 8.34499 169.236 7.61625 168.318 7.61625C167.401 7.61625 166.656 8.34499 166.656 9.24396C166.656 9.89495 167.047 10.4567 167.611 10.717C167.248 14.0015 166.797 17.3133 166.234 20.4853C165.305 25.7141 164.075 30.5475 162.443 34.2473C161.252 36.9467 159.86 39.0145 158.236 40.2069C158.986 36.9107 159.513 32.4023 159.895 27.5324C160.18 23.9108 160.386 20.0501 160.54 16.2729C161.034 15.9907 161.366 15.4664 161.366 14.8661C161.366 13.9672 160.622 13.2384 159.705 13.2384C158.786 13.2384 158.043 13.9672 158.043 14.8661C158.043 15.4915 158.402 16.0345 158.931 16.3071C158.86 17.7131 158.782 19.1063 158.696 20.4735C158.371 25.7017 157.94 30.5256 157.369 34.2109C157.083 36.0557 156.766 37.5887 156.42 38.7352C156.242 39.3198 156.066 39.7747 155.896 40.1127C155.723 40.4551 155.565 40.6589 155.436 40.7624C155.357 40.8252 155.305 40.8431 155.277 40.8478C155.252 40.8517 155.228 40.8487 155.197 40.833C155.112 40.7908 154.961 40.6511 154.768 40.2846C154.384 39.5554 154.012 38.27 153.67 36.5237C152.992 33.0649 152.494 28.1403 152.137 23.2149C152.044 21.9416 151.959 20.6547 151.878 19.3576C152.336 19.0679 152.639 18.5632 152.639 17.9891C152.639 17.0902 151.896 16.3614 150.978 16.3614C150.061 16.3614 149.316 17.0902 149.316 17.9891C149.316 18.675 149.75 19.2618 150.363 19.5015C150.559 23.538 150.817 27.6768 151.169 31.4081C151.486 34.7659 151.883 37.8216 152.387 40.1856C152.422 40.3504 152.458 40.5122 152.494 40.671C152.4 40.6152 152.306 40.5564 152.213 40.4943C150.987 39.6763 149.893 38.3158 148.921 36.5754C146.977 33.0927 145.554 28.1523 144.538 23.2287C144.321 22.1804 144.117 21.1229 143.924 20.0583C144.427 19.7785 144.766 19.2489 144.766 18.6417C144.766 17.7428 144.022 17.014 143.104 17.014C142.187 17.014 141.443 17.7428 141.443 18.6417C141.443 19.3628 141.921 19.9743 142.585 20.1881C143.132 24.0014 143.838 27.878 144.784 31.3915C145.687 34.7485 146.812 37.7885 148.236 40.1289C148.279 40.1999 148.322 40.2704 148.365 40.3401C143.249 37.3074 139.86 30.4191 137.681 23.6124C137.163 21.9921 136.776 20.3698 136.384 18.7236C136.302 18.377 136.219 18.0289 136.135 17.6799C136.63 17.3983 136.964 16.8727 136.964 16.2709C136.964 15.372 136.22 14.6432 135.302 14.6432C134.385 14.6432 133.64 15.372 133.64 16.2709C133.64 16.9875 134.114 17.5959 134.77 17.8133C137.097 29.6176 141.542 42.9957 152 44.7596C155.307 45.3175 158.685 44.678 161.65 42.7841C171.406 36.5504 174.563 20.4861 175.98 8.34613C176.18 6.63194 176.348 4.91288 176.489 3.19042Z" fill="url(#paint1_linear_16660_53550)"/>
</g>
<defs>
<linearGradient id="paint0_linear_16660_53550" x1="143.786" y1="36.9881" x2="167.993" y2="41.7093" gradientUnits="userSpaceOnUse">
<stop stop-color="#00F3C7"/>
<stop offset="1" stop-color="#0ECDC2"/>
</linearGradient>
<linearGradient id="paint1_linear_16660_53550" x1="141.7" y1="36.8639" x2="169.27" y2="42.3697" gradientUnits="userSpaceOnUse">
<stop stop-color="#00F3C7"/>
<stop offset="1" stop-color="#0ECDC2"/>
</linearGradient>
<clipPath id="clip0_16660_53550">
<rect width="178.367" height="45.0612" fill="white"/>
</clipPath>
</defs>
</svg>
